# xmcd
#
# Track frame offsets: 
#        150
#        17548
#        35098
#        56149
#        76956
#        90207
#        105908
#        121956
#        132607
#        145603
#        160221
#        177843
#
# Disc length: 2535 seconds
#
# Revision: 0
# Processed by: cddbd v1.5.2PL0 Copyright (c) Steve Scherf et al.
# Submitted via: ExactAudioCopy v0.99pb4
#
DISCID=9109e50c
DTITLE=Various Artist - The Best of The Best 70s Rhythum and Blues
DYEAR=1999
DGENRE=R&B
TTITLE0=Brook Benton - A Rainy Night in Georgia
TTITLE1=The Dramatics - What You See Is What You Get
TTITLE2=Bill Paul - Me and Mrs. Jones
TTITLE3=Gladys Knight and The Pips - Midnight Train to Georgia
TTITLE4=The O'Jays - Love Train
TTITLE5=Kool and The Gang - Hollywood Swingin'
TTITLE6=Barry White - What Am I Gonna Do?
TTITLE7=LLoyd Price - Stagger Lee
TTITLE8=The Ohio Players - The Love Rollercoaster
TTITLE9=Al Green - Let's Stay Together
TTITLE10=Aretha Franklin - Call Me
TTITLE11=Jean Knight - Mr. Big Stuff
EXTD=
EXTT0=
EXTT1=
EXTT2=
EXTT3=
EXTT4=
EXTT5=
EXTT6=
EXTT7=
EXTT8=
EXTT9=
EXTT10=
EXTT11=
PLAYORDER=
